<svg width="321" height="240" viewBox="0 0 321 240" fill="none" xmlns="http://www.w3.org/2000/svg">
<path d="M9.95 82.1348V22.6348H26.78V82.1348H9.95ZM51.4187 82.1348V35.9798H33.1437V22.6348H86.4387V35.9798H68.2487V82.1348H51.4187Z" fill="#F2F1EA"/>
<path d="M108.349 48.7298H135.804V61.7348H108.349V48.7298ZM109.539 82.1348H92.7088V22.6348H139.374V35.6398H109.539V82.1348ZM162.715 45.6698H190.34V58.2498H162.715V45.6698ZM163.905 69.1298H195.015V82.1348H147.245V22.6348H193.91V35.6398H163.905V69.1298ZM225.264 83.3248C220.391 83.3248 215.688 82.7298 211.154 81.5398C206.678 80.2931 203.023 78.7064 200.189 76.7798L205.714 64.3698C208.378 66.0698 211.438 67.4864 214.894 68.6198C218.408 69.6964 221.893 70.2348 225.349 70.2348C227.673 70.2348 229.543 70.0364 230.959 69.6398C232.376 69.1864 233.396 68.6198 234.019 67.9398C234.699 67.2031 235.039 66.3531 235.039 65.3898C235.039 64.0298 234.416 62.9531 233.169 62.1598C231.923 61.3664 230.308 60.7148 228.324 60.2048C226.341 59.6948 224.131 59.1848 221.694 58.6748C219.314 58.1648 216.906 57.5131 214.469 56.7198C212.089 55.9264 209.908 54.9064 207.924 53.6598C205.941 52.3564 204.326 50.6848 203.079 48.6448C201.833 46.5481 201.209 43.9131 201.209 40.7398C201.209 37.1698 202.173 33.9398 204.099 31.0498C206.083 28.1598 209.029 25.8364 212.939 24.0798C216.849 22.3231 221.723 21.4448 227.559 21.4448C231.469 21.4448 235.294 21.8981 239.034 22.8048C242.831 23.6548 246.203 24.9298 249.149 26.6298L243.964 39.1248C241.131 37.5948 238.326 36.4614 235.549 35.7248C232.773 34.9314 230.081 34.5348 227.474 34.5348C225.151 34.5348 223.281 34.7898 221.864 35.2998C220.448 35.7531 219.428 36.3764 218.804 37.1698C218.181 37.9631 217.869 38.8698 217.869 39.8898C217.869 41.1931 218.464 42.2414 219.654 43.0348C220.901 43.7714 222.516 44.3948 224.499 44.9048C226.539 45.3581 228.749 45.8398 231.129 46.3498C233.566 46.8598 235.974 47.5114 238.354 48.3048C240.791 49.0414 243.001 50.0614 244.984 51.3648C246.968 52.6114 248.554 54.2831 249.744 56.3798C250.991 58.4198 251.614 60.9981 251.614 64.1148C251.614 67.5714 250.623 70.7731 248.639 73.7198C246.713 76.6098 243.794 78.9331 239.884 80.6898C236.031 82.4464 231.158 83.3248 225.264 83.3248ZM271.223 82.1348V35.9798H252.948V22.6348H306.243V35.9798H288.053V82.1348H271.223Z" fill="#3A77C3"/>
<path d="M11.45 179.135V164.875L41.58 136.7C43.7267 134.706 45.2983 132.943 46.295 131.41C47.3683 129.876 48.0583 128.496 48.365 127.27C48.7483 125.966 48.94 124.778 48.94 123.705C48.94 121.098 48.0583 119.066 46.295 117.61C44.6083 116.153 42.04 115.425 38.59 115.425C35.6767 115.425 32.955 116.076 30.425 117.38C27.895 118.683 25.825 120.638 24.215 123.245L7.31 113.815C10.3 108.755 14.6317 104.691 20.305 101.625C25.9783 98.5581 32.7633 97.0248 40.66 97.0248C46.87 97.0248 52.3133 98.0214 56.99 100.015C61.6667 102.008 65.3083 104.845 67.915 108.525C70.5983 112.205 71.94 116.536 71.94 121.52C71.94 124.126 71.595 126.733 70.905 129.34C70.215 131.87 68.8733 134.591 66.88 137.505C64.9633 140.341 62.0883 143.523 58.255 147.05L34.335 169.13L30.54 161.08H74.125V179.135H11.45ZM116.288 180.745C109.388 180.745 103.254 179.096 97.8878 175.8C92.5978 172.503 88.4194 167.75 85.3528 161.54C82.2861 155.33 80.7528 147.778 80.7528 138.885C80.7528 129.991 82.2861 122.44 85.3528 116.23C88.4194 110.02 92.5978 105.266 97.8878 101.97C103.254 98.6731 109.388 97.0248 116.288 97.0248C123.111 97.0248 129.168 98.6731 134.458 101.97C139.824 105.266 144.041 110.02 147.108 116.23C150.174 122.44 151.708 129.991 151.708 138.885C151.708 147.778 150.174 155.33 147.108 161.54C144.041 167.75 139.824 172.503 134.458 175.8C129.168 179.096 123.111 180.745 116.288 180.745ZM116.288 162.115C118.741 162.115 120.888 161.348 122.728 159.815C124.644 158.281 126.139 155.828 127.213 152.455C128.286 149.005 128.823 144.481 128.823 138.885C128.823 133.211 128.286 128.688 127.213 125.315C126.139 121.941 124.644 119.488 122.728 117.955C120.888 116.421 118.741 115.655 116.288 115.655C113.834 115.655 111.649 116.421 109.733 117.955C107.893 119.488 106.398 121.941 105.248 125.315C104.174 128.688 103.638 133.211 103.638 138.885C103.638 144.481 104.174 149.005 105.248 152.455C106.398 155.828 107.893 158.281 109.733 159.815C111.649 161.348 113.834 162.115 116.288 162.115ZM158.232 179.135V164.875L188.362 136.7C190.509 134.706 192.081 132.943 193.077 131.41C194.151 129.876 194.841 128.496 195.147 127.27C195.531 125.966 195.722 124.778 195.722 123.705C195.722 121.098 194.841 119.066 193.077 117.61C191.391 116.153 188.822 115.425 185.372 115.425C182.459 115.425 179.737 116.076 177.207 117.38C174.677 118.683 172.607 120.638 170.997 123.245L154.092 113.815C157.082 108.755 161.414 104.691 167.087 101.625C172.761 98.5581 179.546 97.0248 187.442 97.0248C193.652 97.0248 199.096 98.0214 203.772 100.015C208.449 102.008 212.091 104.845 214.697 108.525C217.381 112.205 218.722 116.536 218.722 121.52C218.722 124.126 218.377 126.733 217.687 129.34C216.997 131.87 215.656 134.591 213.662 137.505C211.746 140.341 208.871 143.523 205.037 147.05L181.117 169.13L177.322 161.08H220.907V179.135H158.232ZM226.056 163.725V148.89L262.166 98.6348H285.741L250.666 148.89L239.856 145.67H302.761V163.725H226.056ZM268.606 179.135V163.725L269.296 145.67V131.985H290.801V179.135H268.606Z" fill="#F2F1EA"/>
<path d="M23.693 229.793C21.0923 229.793 18.6797 229.385 16.455 228.571C14.2617 227.725 12.3503 226.534 10.721 224.999C9.123 223.463 7.86967 221.662 6.961 219.594C6.05233 217.494 5.598 215.191 5.598 212.685C5.598 210.178 6.05233 207.891 6.961 205.823C7.86967 203.723 9.123 201.906 10.721 200.371C12.3503 198.835 14.2617 197.66 16.455 196.846C18.6797 196 21.0923 195.577 23.693 195.577C26.7323 195.577 29.4427 196.109 31.824 197.175C34.2367 198.24 36.242 199.775 37.84 201.781L31.918 207.139C30.8527 205.885 29.6777 204.93 28.393 204.272C27.1397 203.614 25.7297 203.285 24.163 203.285C22.8157 203.285 21.578 203.504 20.45 203.943C19.322 204.381 18.3507 205.024 17.536 205.87C16.7527 206.684 16.126 207.671 15.656 208.831C15.2173 209.99 14.998 211.275 14.998 212.685C14.998 214.095 15.2173 215.379 15.656 216.539C16.126 217.698 16.7527 218.701 17.536 219.547C18.3507 220.361 19.322 220.988 20.45 221.427C21.578 221.865 22.8157 222.085 24.163 222.085C25.7297 222.085 27.1397 221.756 28.393 221.098C29.6777 220.44 30.8527 219.484 31.918 218.231L37.84 223.589C36.242 225.563 34.2367 227.098 31.824 228.195C29.4427 229.26 26.7323 229.793 23.693 229.793ZM50.1705 229.135V215.223L52.3325 220.816L37.6215 196.235H47.4445L58.0665 214.048H52.3795L63.0485 196.235H72.0725L57.4085 220.816L59.4765 215.223V229.135H50.1705ZM74.3017 229.135V196.235H91.1277C95.4517 196.235 98.6791 197.034 100.81 198.632C102.94 200.198 104.006 202.266 104.006 204.836C104.006 206.528 103.551 208.016 102.643 209.301C101.765 210.554 100.512 211.557 98.8827 212.309C97.2847 213.029 95.3734 213.39 93.1487 213.39L94.0887 211.134C96.4074 211.134 98.4284 211.494 100.152 212.215C101.875 212.904 103.207 213.922 104.147 215.27C105.118 216.586 105.604 218.199 105.604 220.111C105.604 222.962 104.444 225.187 102.126 226.785C99.8384 228.351 96.4857 229.135 92.0677 229.135H74.3017ZM83.5137 222.414H91.3157C92.9137 222.414 94.1201 222.147 94.9347 221.615C95.7807 221.051 96.2037 220.205 96.2037 219.077C96.2037 217.949 95.7807 217.118 94.9347 216.586C94.1201 216.022 92.9137 215.74 91.3157 215.74H82.8557V209.301H89.9057C91.4724 209.301 92.6474 209.034 93.4307 208.502C94.2141 207.969 94.6057 207.17 94.6057 206.105C94.6057 205.039 94.2141 204.256 93.4307 203.755C92.6474 203.222 91.4724 202.956 89.9057 202.956H83.5137V222.414ZM118.978 208.972H134.253V215.928H118.978V208.972ZM119.636 221.944H136.838V229.135H110.424V196.235H136.227V203.426H119.636V221.944ZM142.002 229.135V196.235H157.042C160.05 196.235 162.635 196.72 164.797 197.692C166.99 198.663 168.682 200.073 169.873 201.922C171.064 203.739 171.659 205.901 171.659 208.408C171.659 210.883 171.064 213.029 169.873 214.847C168.682 216.633 166.99 218.011 164.797 218.983C162.635 219.923 160.05 220.393 157.042 220.393H147.172L151.308 216.492V229.135H142.002ZM162.353 229.135L154.175 217.15H164.092L172.317 229.135H162.353ZM151.308 217.479L147.172 213.202H156.478C158.421 213.202 159.862 212.779 160.802 211.933C161.773 211.087 162.259 209.912 162.259 208.408C162.259 206.872 161.773 205.682 160.802 204.836C159.862 203.99 158.421 203.567 156.478 203.567H147.172L151.308 199.29V217.479Z" fill="#3A77C3"/>
<path d="M175.575 219.171V212.309H189.299V219.171H175.575Z" fill="#F2F1EA"/>
<path d="M215.84 229.135L206.581 213.484L214.054 209.066L226.321 229.135H215.84ZM194.878 229.135V196.235H204.137V229.135H194.878ZM201.458 216.539V209.019H213.396V216.539H201.458ZM214.947 213.672L206.346 212.732L216.451 196.235H226.227L214.947 213.672ZM245.291 229.793C242.659 229.793 240.23 229.37 238.006 228.524C235.781 227.678 233.838 226.487 232.178 224.952C230.548 223.385 229.279 221.568 228.371 219.5C227.462 217.432 227.008 215.16 227.008 212.685C227.008 210.209 227.462 207.938 228.371 205.87C229.279 203.802 230.548 202 232.178 200.465C233.838 198.898 235.781 197.692 238.006 196.846C240.23 196 242.659 195.577 245.291 195.577C247.954 195.577 250.382 196 252.576 196.846C254.8 197.692 256.727 198.898 258.357 200.465C259.986 202 261.255 203.802 262.164 205.87C263.104 207.938 263.574 210.209 263.574 212.685C263.574 215.16 263.104 217.447 262.164 219.547C261.255 221.615 259.986 223.416 258.357 224.952C256.727 226.487 254.8 227.678 252.576 228.524C250.382 229.37 247.954 229.793 245.291 229.793ZM245.291 222.085C246.544 222.085 247.703 221.865 248.769 221.427C249.865 220.988 250.805 220.361 251.589 219.547C252.403 218.701 253.03 217.698 253.469 216.539C253.939 215.379 254.174 214.095 254.174 212.685C254.174 211.243 253.939 209.959 253.469 208.831C253.03 207.671 252.403 206.684 251.589 205.87C250.805 205.024 249.865 204.381 248.769 203.943C247.703 203.504 246.544 203.285 245.291 203.285C244.037 203.285 242.862 203.504 241.766 203.943C240.7 204.381 239.76 205.024 238.946 205.87C238.162 206.684 237.536 207.671 237.066 208.831C236.627 209.959 236.408 211.243 236.408 212.685C236.408 214.095 236.627 215.379 237.066 216.539C237.536 217.698 238.162 218.701 238.946 219.547C239.76 220.361 240.7 220.988 241.766 221.427C242.862 221.865 244.037 222.085 245.291 222.085ZM268.994 229.699C268.368 229.699 267.694 229.652 266.973 229.558C266.284 229.464 265.548 229.323 264.764 229.135L265.281 221.521C265.72 221.615 266.143 221.662 266.55 221.662C267.835 221.662 268.806 221.16 269.464 220.158C270.122 219.124 270.577 217.682 270.827 215.834C271.109 213.985 271.282 211.823 271.344 209.348L271.814 196.235H298.322V229.135H289.157V201.546L291.178 203.614H277.877L279.757 201.452L279.522 208.972C279.428 212.168 279.209 215.05 278.864 217.62C278.52 220.158 277.971 222.335 277.219 224.153C276.467 225.939 275.418 227.317 274.07 228.289C272.754 229.229 271.062 229.699 268.994 229.699Z" fill="#E57D1E"/>
<rect x="222" y="209.135" width="46" height="7" fill="#E57D1E"/>
</svg>
