<svg width="526" height="375" viewBox="0 0 526 375" fill="none" xmlns="http://www.w3.org/2000/svg">
<path d="M18.1301 136V38H45.8501V136H18.1301ZM86.4315 136V59.98H56.3315V38H144.111V59.98H114.151V136H86.4315Z" fill="#F2F1EA"/>
<path d="M180.199 80.98H225.419V102.4H180.199V80.98ZM182.159 136H154.439V38H231.299V59.42H182.159V136ZM269.743 75.94H315.243V96.66H269.743V75.94ZM271.703 114.58H322.943V136H244.263V38H321.123V59.42H271.703V114.58ZM372.765 137.96C364.739 137.96 356.992 136.98 349.525 135.02C342.152 132.967 336.132 130.353 331.465 127.18L340.565 106.74C344.952 109.54 349.992 111.873 355.685 113.74C361.472 115.513 367.212 116.4 372.905 116.4C376.732 116.4 379.812 116.073 382.145 115.42C384.479 114.673 386.159 113.74 387.185 112.62C388.305 111.407 388.865 110.007 388.865 108.42C388.865 106.18 387.839 104.407 385.785 103.1C383.732 101.793 381.072 100.72 377.805 99.88C374.539 99.04 370.899 98.2 366.885 97.36C362.965 96.52 358.999 95.4467 354.985 94.14C351.065 92.8333 347.472 91.1533 344.205 89.1C340.939 86.9533 338.279 84.2 336.225 80.84C334.172 77.3867 333.145 73.0467 333.145 67.82C333.145 61.94 334.732 56.62 337.905 51.86C341.172 47.1 346.025 43.2733 352.465 40.38C358.905 37.4867 366.932 36.04 376.545 36.04C382.985 36.04 389.285 36.7867 395.445 38.28C401.699 39.68 407.252 41.78 412.105 44.58L403.565 65.16C398.899 62.64 394.279 60.7733 389.705 59.56C385.132 58.2533 380.699 57.6 376.405 57.6C372.579 57.6 369.499 58.02 367.165 58.86C364.832 59.6067 363.152 60.6333 362.125 61.94C361.099 63.2467 360.585 64.74 360.585 66.42C360.585 68.5667 361.565 70.2933 363.525 71.6C365.579 72.8133 368.239 73.84 371.505 74.68C374.865 75.4267 378.505 76.22 382.425 77.06C386.439 77.9 390.405 78.9733 394.325 80.28C398.339 81.4933 401.979 83.1733 405.245 85.32C408.512 87.3733 411.125 90.1267 413.085 93.58C415.139 96.94 416.165 101.187 416.165 106.32C416.165 112.013 414.532 117.287 411.265 122.14C408.092 126.9 403.285 130.727 396.845 133.62C390.499 136.513 382.472 137.96 372.765 137.96ZM448.463 136V59.98H418.363V38H506.143V59.98H476.183V136H448.463Z" fill="#46FBDA"/>
<path d="M42.8872 374.12C38.4605 374.12 34.3539 373.427 30.5672 372.04C26.8339 370.6 23.5805 368.573 20.8072 365.96C18.0872 363.347 15.9539 360.28 14.4072 356.76C12.8605 353.187 12.0872 349.267 12.0872 345C12.0872 340.733 12.8605 336.84 14.4072 333.32C15.9539 329.747 18.0872 326.653 20.8072 324.04C23.5805 321.427 26.8339 319.427 30.5672 318.04C34.3539 316.6 38.4605 315.88 42.8872 315.88C48.0605 315.88 52.6739 316.787 56.7272 318.6C60.8339 320.413 64.2472 323.027 66.9672 326.44L56.8872 335.56C55.0739 333.427 53.0739 331.8 50.8872 330.68C48.7539 329.56 46.3539 329 43.6872 329C41.3939 329 39.2872 329.373 37.3672 330.12C35.4472 330.867 33.7939 331.96 32.4072 333.4C31.0739 334.787 30.0072 336.467 29.2072 338.44C28.4605 340.413 28.0872 342.6 28.0872 345C28.0872 347.4 28.4605 349.587 29.2072 351.56C30.0072 353.533 31.0739 355.24 32.4072 356.68C33.7939 358.067 35.4472 359.133 37.3672 359.88C39.2872 360.627 41.3939 361 43.6872 361C46.3539 361 48.7539 360.44 50.8872 359.32C53.0739 358.2 55.0739 356.573 56.8872 354.44L66.9672 363.56C64.2472 366.92 60.8339 369.533 56.7272 371.4C52.6739 373.213 48.0605 374.12 42.8872 374.12ZM87.9553 373V349.32L91.6353 358.84L66.5953 317H83.3153L101.395 347.32H91.7153L109.875 317H125.235L100.275 358.84L103.795 349.32V373H87.9553ZM129.03 373V317H157.67C165.03 317 170.523 318.36 174.15 321.08C177.776 323.747 179.59 327.267 179.59 331.64C179.59 334.52 178.816 337.053 177.27 339.24C175.776 341.373 173.643 343.08 170.87 344.36C168.15 345.587 164.896 346.2 161.11 346.2L162.71 342.36C166.656 342.36 170.096 342.973 173.03 344.2C175.963 345.373 178.23 347.107 179.83 349.4C181.483 351.64 182.31 354.387 182.31 357.64C182.31 362.493 180.336 366.28 176.39 369C172.496 371.667 166.79 373 159.27 373H129.03ZM144.71 361.56H157.99C160.71 361.56 162.763 361.107 164.15 360.2C165.59 359.24 166.31 357.8 166.31 355.88C166.31 353.96 165.59 352.547 164.15 351.64C162.763 350.68 160.71 350.2 157.99 350.2H143.59V339.24H155.59C158.256 339.24 160.256 338.787 161.59 337.88C162.923 336.973 163.59 335.613 163.59 333.8C163.59 331.987 162.923 330.653 161.59 329.8C160.256 328.893 158.256 328.44 155.59 328.44H144.71V361.56ZM205.074 338.68H231.074V350.52H205.074V338.68ZM206.194 360.76H235.474V373H190.514V317H234.434V329.24H206.194V360.76ZM244.264 373V317H269.864C274.984 317 279.384 317.827 283.064 319.48C286.797 321.133 289.677 323.533 291.704 326.68C293.731 329.773 294.744 333.453 294.744 337.72C294.744 341.933 293.731 345.587 291.704 348.68C289.677 351.72 286.797 354.067 283.064 355.72C279.384 357.32 274.984 358.12 269.864 358.12H253.064L260.104 351.48V373H244.264ZM278.904 373L264.984 352.6H281.864L295.864 373H278.904ZM260.104 353.16L253.064 345.88H268.904C272.211 345.88 274.664 345.16 276.264 343.72C277.917 342.28 278.744 340.28 278.744 337.72C278.744 335.107 277.917 333.08 276.264 331.64C274.664 330.2 272.211 329.48 268.904 329.48H253.064L260.104 322.2V353.16Z" fill="#46FBDA"/>
<path d="M301.723 356.04V344.36H325.083V356.04H301.723ZM370.258 373L354.498 346.36L367.218 338.84L388.098 373H370.258ZM334.578 373V317H350.338V373H334.578ZM345.778 351.56V338.76H366.098V351.56H345.778ZM368.738 346.68L354.098 345.08L371.298 317H387.938L368.738 346.68ZM420.387 374.12C415.907 374.12 411.774 373.4 407.987 371.96C404.201 370.52 400.894 368.493 398.067 365.88C395.294 363.213 393.134 360.12 391.587 356.6C390.041 353.08 389.267 349.213 389.267 345C389.267 340.787 390.041 336.92 391.587 333.4C393.134 329.88 395.294 326.813 398.067 324.2C400.894 321.533 404.201 319.48 407.987 318.04C411.774 316.6 415.907 315.88 420.387 315.88C424.921 315.88 429.054 316.6 432.787 318.04C436.574 319.48 439.854 321.533 442.627 324.2C445.401 326.813 447.561 329.88 449.107 333.4C450.707 336.92 451.507 340.787 451.507 345C451.507 349.213 450.707 353.107 449.107 356.68C447.561 360.2 445.401 363.267 442.627 365.88C439.854 368.493 436.574 370.52 432.787 371.96C429.054 373.4 424.921 374.12 420.387 374.12ZM420.387 361C422.521 361 424.494 360.627 426.307 359.88C428.174 359.133 429.774 358.067 431.107 356.68C432.494 355.24 433.561 353.533 434.307 351.56C435.107 349.587 435.507 347.4 435.507 345C435.507 342.547 435.107 340.36 434.307 338.44C433.561 336.467 432.494 334.787 431.107 333.4C429.774 331.96 428.174 330.867 426.307 330.12C424.494 329.373 422.521 329 420.387 329C418.254 329 416.254 329.373 414.387 330.12C412.574 330.867 410.974 331.96 409.587 333.4C408.254 334.787 407.187 336.467 406.387 338.44C405.641 340.36 405.267 342.547 405.267 345C405.267 347.4 405.641 349.587 406.387 351.56C407.187 353.533 408.254 355.24 409.587 356.68C410.974 358.067 412.574 359.133 414.387 359.88C416.254 360.627 418.254 361 420.387 361ZM460.734 373.96C459.667 373.96 458.521 373.88 457.294 373.72C456.121 373.56 454.867 373.32 453.534 373L454.414 360.04C455.161 360.2 455.881 360.28 456.574 360.28C458.761 360.28 460.414 359.427 461.534 357.72C462.654 355.96 463.427 353.507 463.854 350.36C464.334 347.213 464.627 343.533 464.734 339.32L465.534 317H510.654V373H495.054V326.04L498.494 329.56H475.854L479.054 325.88L478.654 338.68C478.494 344.12 478.121 349.027 477.534 353.4C476.947 357.72 476.014 361.427 474.734 364.52C473.454 367.56 471.667 369.907 469.374 371.56C467.134 373.16 464.254 373.96 460.734 373.96Z" fill="#F2F1EA"/>
<rect x="382" y="340" width="77" height="10" fill="#F2F1EA"/>
<path d="M25.3864 288V265.06L73.8564 219.735C77.3098 216.528 79.8381 213.692 81.4414 211.225C83.1681 208.758 84.2781 206.538 84.7714 204.565C85.3881 202.468 85.6964 200.557 85.6964 198.83C85.6964 194.637 84.2781 191.368 81.4414 189.025C78.7281 186.682 74.5964 185.51 69.0464 185.51C64.3598 185.51 59.9814 186.558 55.9114 188.655C51.8414 190.752 48.5114 193.897 45.9214 198.09L18.7264 182.92C23.5364 174.78 30.5048 168.243 39.6314 163.31C48.7581 158.377 59.6731 155.91 72.3764 155.91C82.3664 155.91 91.1231 157.513 98.6464 160.72C106.17 163.927 112.028 168.49 116.221 174.41C120.538 180.33 122.696 187.298 122.696 195.315C122.696 199.508 122.141 203.702 121.031 207.895C119.921 211.965 117.763 216.343 114.556 221.03C111.473 225.593 106.848 230.712 100.681 236.385L62.2014 271.905L56.0964 258.955H126.211V288H25.3864ZM194.039 290.59C182.939 290.59 173.072 287.938 164.438 282.635C155.928 277.332 149.207 269.685 144.273 259.695C139.34 249.705 136.873 237.557 136.873 223.25C136.873 208.943 139.34 196.795 144.273 186.805C149.207 176.815 155.928 169.168 164.438 163.865C173.072 158.562 182.939 155.91 194.039 155.91C205.015 155.91 214.759 158.562 223.269 163.865C231.902 169.168 238.685 176.815 243.618 186.805C248.552 196.795 251.019 208.943 251.019 223.25C251.019 237.557 248.552 249.705 243.618 259.695C238.685 269.685 231.902 277.332 223.269 282.635C214.759 287.938 205.015 290.59 194.039 290.59ZM194.039 260.62C197.985 260.62 201.439 259.387 204.398 256.92C207.482 254.453 209.887 250.507 211.614 245.08C213.34 239.53 214.204 232.253 214.204 223.25C214.204 214.123 213.34 206.847 211.614 201.42C209.887 195.993 207.482 192.047 204.398 189.58C201.439 187.113 197.985 185.88 194.039 185.88C190.092 185.88 186.577 187.113 183.493 189.58C180.533 192.047 178.128 195.993 176.278 201.42C174.552 206.847 173.688 214.123 173.688 223.25C173.688 232.253 174.552 239.53 176.278 245.08C178.128 250.507 180.533 254.453 183.493 256.92C186.577 259.387 190.092 260.62 194.039 260.62ZM261.514 288V265.06L309.984 219.735C313.438 216.528 315.966 213.692 317.569 211.225C319.296 208.758 320.406 206.538 320.899 204.565C321.516 202.468 321.824 200.557 321.824 198.83C321.824 194.637 320.406 191.368 317.569 189.025C314.856 186.682 310.724 185.51 305.174 185.51C300.488 185.51 296.109 186.558 292.039 188.655C287.969 190.752 284.639 193.897 282.049 198.09L254.854 182.92C259.664 174.78 266.633 168.243 275.759 163.31C284.886 158.377 295.801 155.91 308.504 155.91C318.494 155.91 327.251 157.513 334.774 160.72C342.298 163.927 348.156 168.49 352.349 174.41C356.666 180.33 358.824 187.298 358.824 195.315C358.824 199.508 358.269 203.702 357.159 207.895C356.049 211.965 353.891 216.343 350.684 221.03C347.601 225.593 342.976 230.712 336.809 236.385L298.329 271.905L292.224 258.955H362.339V288H261.514ZM370.622 263.21V239.345L428.712 158.5H466.637L410.212 239.345L392.822 234.165H494.017V263.21H370.622ZM439.072 288V263.21L440.182 234.165V212.15H474.777V288H439.072Z" fill="#F2F1EA"/>
</svg>
