<svg width="220" height="217" viewBox="0 0 220 217" fill="none" xmlns="http://www.w3.org/2000/svg">
<path d="M0 4.99731C0 2.23588 2.23858 -0.00268555 5 -0.00268555H215C217.761 -0.00268555 220 2.23589 220 4.99731V211.897C220 214.658 217.761 216.897 215 216.897H5C2.23857 216.897 0 214.658 0 211.897V4.99731Z" fill="white"/>
<g clip-path="url(#clip0_8989_176)">
<mask id="mask0_8989_176" style="mask-type:luminance" maskUnits="userSpaceOnUse" x="10" y="73" width="204" height="73">
<path d="M214 73H10V146H214V73Z" fill="white"/>
</mask>
<g mask="url(#mask0_8989_176)">
<path fill-rule="evenodd" clip-rule="evenodd" d="M168.976 99.5033C174.17 99.5033 178.381 103.746 178.381 108.98C178.381 114.214 174.17 118.457 168.976 118.457C163.782 118.457 159.571 114.214 159.571 108.98C159.571 103.746 163.782 99.5033 168.976 99.5033ZM65.4803 95.5314V126.194H62.0666V94.0655C62.0666 92.968 62.9364 92.0918 64.0659 92.0918H82.3873C83.517 92.0918 84.3868 92.9684 84.3868 94.0655V126.194H80.9729V95.5314H65.4803ZM107.075 95.5314H99.052C94.9721 95.5314 91.7208 98.9876 91.7208 103.082C91.7208 106.997 94.8826 110.133 99.052 110.133C100.582 110.133 101.891 111.957 100.84 113.459L92.0378 126.194H88.1689L97.0772 113.27C92.0866 112.443 88.3072 108.34 88.3072 103.082C88.3072 97.0957 93.0946 92.0918 99.052 92.0918H108.49C109.619 92.0918 110.489 92.9685 110.489 94.0655V126.194H107.075V95.5314ZM135.193 92.0918H112.873V95.5314H122.326V126.194H125.74V95.5314H135.193V92.0918ZM212.089 92.0918C213.178 92.0918 213.999 92.968 213.999 94.0329V126.194H210.585V98.8195L202.318 109.003C200.944 110.37 199.57 110.334 198.197 109.009L186.63 94.7608C186.541 94.6374 186.507 94.3655 186.516 94.0329C186.516 92.968 187.337 92.0918 188.426 92.0918C189.034 92.0918 189.602 92.3664 189.929 92.8622L200.258 105.755L210.585 92.8622C210.913 92.3664 211.481 92.0918 212.089 92.0918ZM137.577 126.194H140.991V92.0918H137.577V126.194ZM154.955 126.194H159.897L145.933 109.003L159.662 92.0918H154.817L142.267 107.759C142.022 108.065 141.812 108.496 141.812 109.003C141.812 109.511 142.01 109.913 142.316 110.297L154.955 126.194ZM10.3232 126.194H13.7371V92.0918H10.3232V126.194ZM27.7015 126.194H32.6434L18.6788 109.003L32.4075 92.0918H27.5636L15.0131 107.759C14.7682 108.065 14.5579 108.496 14.5579 109.003C14.5579 109.511 14.7559 109.913 15.0619 110.297L27.7015 126.194ZM38.7067 92.0918V119L54.0207 92.8782C54.3498 92.3169 54.9311 92.0918 55.6138 92.0918C56.7436 92.0918 57.6132 92.9685 57.6132 94.0737V126.194H54.1996V99.4901L38.8856 125.407C38.5877 125.911 37.9345 126.194 37.2926 126.194C36.1627 126.194 35.2931 125.318 35.2931 124.163V92.0918H38.7067ZM174.473 127.182C177.306 126.255 179.809 124.587 181.82 122.4C185.105 118.884 186.766 114.286 186.786 109.5C186.766 104.731 185.118 100.131 181.82 96.6004C179.809 94.4133 177.306 92.7452 174.473 91.8184C174.491 91.8197 174.51 91.821 174.527 91.8223C176.423 91.9647 178.24 92.456 179.921 93.2355C182.717 94.2442 185.114 96.3914 186.868 99.1208C187.36 99.9036 187.802 100.737 188.186 101.605C189.35 104.117 189.886 106.74 189.905 109.5C189.886 112.261 189.35 114.883 188.186 117.395C187.802 118.263 187.36 119.097 186.868 119.879C185.115 122.609 182.716 124.756 179.921 125.765C178.224 126.551 176.389 127.045 174.473 127.182ZM168.976 95.6602C176.366 95.6602 182.357 101.697 182.357 109.143C182.357 116.589 176.366 122.625 168.976 122.625C161.586 122.625 155.595 116.589 155.595 109.143C155.595 101.697 161.586 95.6602 168.976 95.6602ZM189.607 120.068L186.193 124.27V126.194H189.607V120.068Z" fill="#FF2945"/>
<path fill-rule="evenodd" clip-rule="evenodd" d="M106.752 95.5314H98.7288C94.6489 95.5314 91.3976 98.9876 91.3976 103.082C91.3976 106.997 94.5594 110.134 98.7288 110.134C100.258 110.134 101.567 111.957 100.517 113.459L91.7145 126.194H87.8457L96.754 113.27C91.7633 112.443 87.9839 108.34 87.9839 103.082C87.9839 97.0957 92.7714 92.0918 98.7288 92.0918H108.166C109.296 92.0918 110.166 92.9685 110.166 94.0655V126.194H106.752V95.5314ZM134.87 92.0918H112.55V95.5314H122.003V126.194H125.417V95.5314H134.87V92.0918ZM211.766 92.0918C212.855 92.0918 213.676 92.968 213.676 94.0329V126.194H210.262V98.8195L201.995 109.003C200.621 110.37 199.247 110.334 197.873 109.009L186.307 94.7609C186.218 94.6375 186.184 94.3655 186.193 94.0329C186.193 92.968 187.014 92.0918 188.103 92.0918C188.71 92.0918 189.279 92.3664 189.606 92.8622L199.934 105.755L210.262 92.8622C210.589 92.3664 211.158 92.0918 211.766 92.0918ZM137.254 126.194H140.668V92.0918H137.254V126.194ZM154.632 126.194H159.574L145.609 109.003L159.338 92.0918H154.494L141.944 107.759C141.699 108.065 141.488 108.496 141.488 109.003C141.488 109.511 141.686 109.913 141.992 110.297L154.632 126.194ZM10 126.194H13.4138V92.0918H10V126.194ZM27.3783 126.194H32.3202L18.3555 109.003L32.0843 92.0918H27.2403L14.6899 107.759C14.445 108.065 14.2346 108.496 14.2346 109.003C14.2346 109.511 14.4327 109.913 14.7386 110.297L27.3783 126.194ZM38.3835 92.0918V119L53.6975 92.8782C54.0266 92.3169 54.6078 92.0918 55.2905 92.0918C56.4204 92.0918 57.29 92.9685 57.29 94.0738V126.194H53.8763V99.4901L38.5623 125.407C38.2644 125.912 37.6113 126.194 36.9693 126.194C35.8394 126.194 34.9698 125.318 34.9698 124.163V92.0918H38.3835ZM65.157 95.5314V126.194H61.7434V94.0655C61.7434 92.968 62.6131 92.0918 63.7427 92.0918H82.064C83.1937 92.0918 84.0635 92.9684 84.0635 94.0655V126.194H80.6497V95.5314H65.157Z" fill="#3D3D3D"/>
</g>
</g>
<defs>
<clipPath id="clip0_8989_176">
<rect width="204" height="73" fill="white" transform="translate(10 73)"/>
</clipPath>
</defs>
</svg>
