<svg width="220" height="218" viewBox="0 0 220 218" fill="none" xmlns="http://www.w3.org/2000/svg">
<path d="M0 5.76489C0 3.00346 2.23858 0.764893 5 0.764893H215C217.761 0.764893 220 3.00347 220 5.76489V212.665C220 215.426 217.761 217.665 215 217.665H5C2.23857 217.665 0 215.426 0 212.665V5.76489Z" fill="white"/>
<g clip-path="url(#clip0_8959_203)">
<path fill-rule="evenodd" clip-rule="evenodd" d="M15.0004 95.0458C18.5454 81.2395 31.4123 72.2491 45.9696 71.0985C51.7246 70.7141 57.4842 71.7773 62.7241 74.1916C67.964 76.6058 72.5176 80.2943 75.9704 84.9212C82.6337 93.435 84.8492 104.233 83.6676 122.724C83.0439 132.733 83.6676 142.858 88.5911 145.208C81.9115 147.444 73.5579 143.22 69.2744 136.152C64.6627 142.496 55.7674 146.474 46.1337 147C31.1004 147.082 19.7598 137.944 16.8714 125.206C16.7072 124.45 16.5595 123.71 16.4611 122.987C16.6744 123.612 16.9206 124.253 17.1832 124.877C29.0161 152.506 70.9156 143.581 71.2438 111.843C71.4079 95.6046 59.2303 82.2586 44.0002 81.0752C42.5299 80.8993 41.047 80.8553 39.5689 80.9437C34.6257 81.0932 29.7949 82.4575 25.502 84.9167C21.2091 87.3758 17.5858 90.8543 14.9512 95.0458" fill="#087B83"/>
<path fill-rule="evenodd" clip-rule="evenodd" d="M17.1825 124.877C16.92 124.253 16.6738 123.612 16.4604 122.987C14.2448 108.08 24.2889 95.917 35.4818 94.4378C46.9701 92.7942 54.1092 100.536 53.5348 108.754C51.9198 106.47 49.5878 104.794 46.9106 103.993C44.2335 103.191 41.3655 103.311 38.7641 104.332C36.5593 105.344 34.709 106.996 33.4535 109.074C32.198 111.152 31.5952 113.56 31.7234 115.985C32.3963 123.184 38.6657 128.23 46.8388 127.77C60.9365 126.965 66.533 113.306 65.22 102.409C64.6598 96.9338 62.2319 91.819 58.3456 87.927C54.4593 84.035 49.3521 81.6035 43.8846 81.0425C59.1148 82.2423 71.2924 95.5719 71.1283 111.811C70.9149 143.581 29.0155 152.506 17.1825 124.877Z" fill="#FBBA00"/>
<path fill-rule="evenodd" clip-rule="evenodd" d="M192.79 101.669V100.848C192.797 100.389 192.753 99.9319 192.658 99.4835C192.558 99.0996 192.36 98.7484 192.084 98.4644C191.631 97.9957 191.066 97.6506 190.443 97.4618C189.731 97.2745 188.996 97.186 188.26 97.1989C186.336 97.1875 184.453 97.7606 182.86 98.8425C181.288 99.9092 180.053 101.403 179.299 103.149H178.56V94.3883H179.266C179.499 94.6302 179.757 94.8452 180.038 95.0293C180.311 95.171 180.616 95.239 180.924 95.2265C181.265 95.2233 181.606 95.1903 181.941 95.1279L182.942 94.9307C185.503 94.3719 187.39 94.0267 188.621 93.8624C189.818 93.7001 191.024 93.6178 192.232 93.6158C193.673 93.6003 195.113 93.7214 196.531 93.9774C197.758 94.2074 198.918 94.707 199.929 95.4402C200.971 96.2545 201.678 97.4246 201.915 98.7274C202.161 100.055 202.266 101.405 202.226 102.754V112.616C202.167 113.571 202.307 114.528 202.637 115.426C202.841 115.881 203.173 116.267 203.593 116.535C204.013 116.804 204.502 116.944 205 116.938V118.155H194.546C194.115 117.731 193.76 117.236 193.495 116.692C193.195 116.122 192.959 115.522 192.79 114.9C191.697 116.239 190.236 117.228 188.588 117.744C186.955 118.377 185.219 118.705 183.468 118.714C181.612 118.761 179.789 118.214 178.265 117.152C177.515 116.654 176.903 115.974 176.487 115.175C176.07 114.376 175.863 113.484 175.885 112.583C175.881 111.433 176.15 110.298 176.669 109.272C177.189 108.247 177.944 107.359 178.872 106.682C180.905 105.199 183.208 104.127 185.65 103.527C187.977 102.876 190.346 102.388 192.74 102.064L192.79 101.669ZM188.44 106.255C187.59 106.777 186.854 107.464 186.274 108.277C185.704 109.005 185.387 109.899 185.371 110.824C185.357 111.594 185.612 112.344 186.094 112.945C186.336 113.238 186.643 113.472 186.99 113.629C187.337 113.786 187.715 113.861 188.096 113.849C189.917 113.849 191.214 112.731 191.985 110.561C192.557 108.738 192.828 106.834 192.79 104.924C191.964 105.039 191.147 105.209 190.344 105.433C189.677 105.626 189.038 105.902 188.44 106.255Z" fill="#FBBA00"/>
<path fill-rule="evenodd" clip-rule="evenodd" d="M120.069 101.67V100.848C120.076 100.39 120.032 99.9321 119.937 99.4837C119.837 99.0998 119.639 98.7486 119.363 98.4646C118.91 97.9959 118.345 97.6508 117.722 97.462C117.009 97.2767 116.275 97.1883 115.539 97.1991C113.614 97.1857 111.731 97.7589 110.139 98.8427C108.566 99.8714 107.314 101.324 106.529 103.034H105.79V94.2735H106.529C106.761 94.5154 107.02 94.7304 107.3 94.9145C107.573 95.0584 107.879 95.1265 108.186 95.1117C108.528 95.1076 108.868 95.0746 109.204 95.0131L110.205 94.8159C112.765 94.257 114.653 93.9119 115.884 93.7475C117.08 93.5853 118.287 93.5029 119.494 93.501C120.93 93.4861 122.364 93.6072 123.778 93.8626C125.009 94.0923 126.175 94.5918 127.191 95.3254C128.234 96.1397 128.941 97.3098 129.177 98.6126C129.429 99.9393 129.539 101.289 129.505 102.639V112.501C129.446 113.456 129.586 114.413 129.916 115.312C130.12 115.766 130.452 116.152 130.872 116.42C131.292 116.689 131.781 116.829 132.279 116.824V118.04H121.825C121.389 117.617 121.028 117.122 120.758 116.577C120.463 116.007 120.232 115.406 120.069 114.786C118.997 116.143 117.554 117.16 115.916 117.711C114.283 118.344 112.547 118.673 110.796 118.681C108.94 118.729 107.117 118.182 105.593 117.119C104.854 116.621 104.251 115.944 103.841 115.152C103.431 114.359 103.227 113.476 103.246 112.583C103.242 111.433 103.511 110.298 104.03 109.273C104.55 108.247 105.305 107.359 106.233 106.683C108.266 105.2 110.569 104.128 113.011 103.527C115.338 102.877 117.707 102.388 120.101 102.064L120.069 101.67ZM115.719 106.255C114.869 106.777 114.133 107.464 113.553 108.277C112.983 109.005 112.666 109.899 112.65 110.825C112.636 111.594 112.891 112.344 113.373 112.945C113.614 113.24 113.92 113.476 114.267 113.633C114.615 113.79 114.994 113.864 115.375 113.849C117.197 113.849 118.477 112.731 119.264 110.562C119.836 108.738 120.107 106.834 120.069 104.924C119.243 105.037 118.426 105.207 117.623 105.434C116.955 105.623 116.315 105.899 115.719 106.255Z" fill="#FBBA00"/>
<path fill-rule="evenodd" clip-rule="evenodd" d="M156.273 100.7L155.322 100.798C154.647 99.4561 153.605 98.3333 152.318 97.5605C150.964 96.8085 149.435 96.4286 147.887 96.4593C147.053 96.4445 146.223 96.561 145.425 96.8044C144.342 97.166 143.784 97.7084 143.784 98.448C143.784 99.1876 144.26 99.615 145.195 100.092C145.606 100.256 146.361 100.47 147.477 100.765L151.711 101.883C152.643 102.098 153.563 102.361 154.468 102.672C155.254 102.917 155.993 103.295 156.651 103.79C157.466 104.274 158.144 104.958 158.62 105.778C159.07 106.664 159.3 107.645 159.293 108.638C159.302 110.163 158.887 111.659 158.095 112.961C157.287 114.31 156.16 115.439 154.813 116.248C153.426 117.08 151.92 117.695 150.349 118.073C148.737 118.469 147.085 118.674 145.425 118.681C143.473 118.653 141.527 118.438 139.615 118.04L137.876 117.695C137.436 117.618 136.992 117.574 136.546 117.563C136.123 117.549 135.701 117.623 135.308 117.782C134.916 117.94 134.56 118.179 134.265 118.483H133.543V108.885L134.61 108.688C135.044 110.646 136.162 112.384 137.763 113.59C139.364 114.795 141.342 115.388 143.341 115.262C144.69 115.304 146.033 115.058 147.28 114.539C147.903 114.325 148.447 113.929 148.842 113.401C149.237 112.874 149.465 112.239 149.495 111.58C149.495 110.791 148.921 110.183 147.854 109.723C146.937 109.453 146.005 109.233 145.064 109.066L141.388 108.244C139.58 107.897 137.85 107.223 136.284 106.255C135.528 105.767 134.908 105.095 134.484 104.301C134.059 103.508 133.842 102.619 133.855 101.719C133.853 100.38 134.26 99.0726 135.02 97.9714C135.79 96.8403 136.835 95.924 138.056 95.3087C139.34 94.6388 140.718 94.1677 142.143 93.9117C143.62 93.635 145.12 93.4974 146.623 93.5008L151.022 93.8459C151.563 93.9446 152.088 94.0267 152.663 94.0761C153.206 94.1547 153.755 94.1877 154.304 94.1747C154.599 94.1724 154.892 94.1282 155.174 94.0432C155.481 93.9394 155.777 93.8074 156.06 93.6487H156.405L156.273 100.7Z" fill="#FBBA00"/>
<path fill-rule="evenodd" clip-rule="evenodd" d="M159.949 94.372L172.11 93.6981V112.912C172.11 115.542 173.062 116.856 174.933 116.856V118.073H159.949V116.856C161.771 116.856 162.674 115.542 162.674 112.912V99.4836C162.674 96.8867 161.771 95.5882 159.949 95.5882V94.372ZM162.116 86.7786C162.106 86.1528 162.25 85.5342 162.536 84.9779C162.823 84.4216 163.242 83.9448 163.757 83.59C164.85 82.7881 166.177 82.3719 167.531 82.4066C168.82 82.3625 170.078 82.8021 171.06 83.6393C171.515 84.0534 171.874 84.5622 172.113 85.1301C172.351 85.6979 172.462 86.311 172.439 86.9265C172.443 87.5352 172.295 88.1354 172.008 88.6722C171.722 89.209 171.305 89.6655 170.797 90C169.738 90.7796 168.452 91.1896 167.138 91.167C165.841 91.2043 164.571 90.7921 163.543 90C163.069 89.6132 162.693 89.12 162.445 88.5603C162.197 88.0005 162.084 87.3901 162.116 86.7786Z" fill="#FBBA00"/>
<path fill-rule="evenodd" clip-rule="evenodd" d="M130.146 128.493V128.132C130.166 127.94 130.166 127.748 130.146 127.556C130.103 127.395 130.018 127.247 129.9 127.129C129.712 126.932 129.473 126.789 129.21 126.718C128.911 126.636 128.602 126.598 128.291 126.603C127.494 126.596 126.712 126.824 126.043 127.26C125.386 127.711 124.868 128.338 124.55 129.068H124.254V125.403H124.582C124.685 125.499 124.795 125.587 124.911 125.666C125.035 125.696 125.164 125.696 125.288 125.666H125.698H126.125C127.192 125.436 127.98 125.288 128.488 125.206C128.989 125.141 129.493 125.108 129.998 125.107C130.599 125.099 131.198 125.154 131.787 125.272C132.305 125.357 132.794 125.566 133.215 125.88C133.654 126.222 133.952 126.713 134.052 127.26C134.141 127.803 134.18 128.354 134.167 128.904V133.029C134.144 133.427 134.205 133.825 134.347 134.196C134.434 134.386 134.573 134.546 134.747 134.66C134.921 134.773 135.124 134.835 135.332 134.837V135.363H130.884C130.711 135.181 130.562 134.976 130.441 134.755C130.326 134.51 130.227 134.258 130.146 133.999C129.726 134.553 129.156 134.975 128.505 135.215C127.826 135.486 127.102 135.625 126.371 135.626C125.592 135.651 124.825 135.42 124.188 134.969C123.878 134.759 123.625 134.475 123.453 134.142C123.281 133.809 123.195 133.437 123.204 133.062C123.204 132.582 123.317 132.109 123.533 131.68C123.75 131.252 124.064 130.881 124.451 130.597C125.3 129.982 126.258 129.536 127.274 129.282C128.244 129.014 129.231 128.811 130.228 128.674L130.146 128.493ZM128.341 130.433C127.983 130.651 127.676 130.942 127.438 131.287C127.193 131.583 127.06 131.955 127.061 132.339C127.053 132.66 127.157 132.974 127.356 133.227C127.457 133.35 127.585 133.448 127.73 133.514C127.875 133.579 128.034 133.611 128.193 133.605C128.948 133.605 129.489 133.145 129.834 132.208C130.065 131.446 130.176 130.653 130.162 129.857C129.82 129.906 129.48 129.972 129.145 130.055C128.864 130.152 128.595 130.279 128.341 130.433Z" fill="#087B83"/>
<path fill-rule="evenodd" clip-rule="evenodd" d="M147.64 133.21C147.64 134.306 148.034 134.854 148.822 134.854V135.363H142.635V134.854C143.39 134.854 143.784 134.311 143.784 133.21V124.039C143.784 122.954 143.39 122.395 142.635 122.395V121.902L147.722 121.606L147.64 133.21Z" fill="#087B83"/>
<path fill-rule="evenodd" clip-rule="evenodd" d="M140.797 133.21C140.797 134.306 141.191 134.854 141.978 134.854V135.363H135.709V134.854C136.464 134.854 136.858 134.311 136.858 133.21V124.039C136.858 122.954 136.464 122.395 135.709 122.395V121.902L140.797 121.606V133.21Z" fill="#087B83"/>
<path fill-rule="evenodd" clip-rule="evenodd" d="M104.346 127.573C104.346 126.504 103.969 125.929 103.214 125.929V125.502L107.694 125.206C107.869 125.514 107.996 125.846 108.072 126.192L108.285 127.145C108.826 126.601 109.432 126.126 110.09 125.732C110.761 125.345 111.516 125.13 112.29 125.107C112.919 125.046 113.55 125.22 114.059 125.596C114.568 125.973 114.92 126.525 115.047 127.145C115.567 126.551 116.189 126.056 116.885 125.683C117.553 125.311 118.303 125.113 119.068 125.107C119.471 125.087 119.873 125.158 120.246 125.314C120.618 125.471 120.95 125.709 121.218 126.011C121.487 126.308 121.659 126.681 121.71 127.08C121.779 127.57 121.812 128.064 121.808 128.559V133.26C121.808 134.355 122.202 134.903 122.99 134.903V135.363H116.672V134.854C117.476 134.854 117.87 134.312 117.87 133.21V128.986C117.894 128.609 117.85 128.23 117.738 127.869C117.686 127.685 117.574 127.525 117.418 127.414C117.263 127.304 117.075 127.25 116.885 127.26C116.585 127.261 116.296 127.366 116.064 127.556C115.815 127.745 115.603 127.979 115.441 128.247C115.282 128.609 115.172 128.99 115.112 129.381C115.112 129.792 115.112 130.268 115.112 130.811V133.21C115.112 134.295 115.506 134.854 116.278 134.854V135.363H109.811V134.854C110.632 134.854 111.042 134.306 111.042 133.21V128.871C111.06 128.509 111.01 128.147 110.895 127.803C110.828 127.63 110.707 127.484 110.55 127.386C110.393 127.289 110.209 127.244 110.025 127.26C109.703 127.264 109.392 127.374 109.139 127.573C108.882 127.776 108.674 128.034 108.531 128.329C108.396 128.619 108.312 128.93 108.285 129.249C108.262 129.589 108.262 129.929 108.285 130.268V133.21C108.285 134.295 108.679 134.854 109.483 134.854V135.363H103.247V134.854C104.002 134.854 104.379 134.306 104.379 133.21L104.346 127.573Z" fill="#087B83"/>
</g>
<defs>
<clipPath id="clip0_8959_203">
<rect width="190" height="76" fill="white" transform="translate(15 71)"/>
</clipPath>
</defs>
</svg>
