<svg width="507" height="375" viewBox="0 0 507 375" fill="none" xmlns="http://www.w3.org/2000/svg">
<path d="M18.1301 136V38H45.8501V136H18.1301ZM86.4315 136V59.98H56.3315V38H144.111V59.98H114.151V136H86.4315Z" fill="#E7E5DE"/>
<path d="M180.199 80.98H225.419V102.4H180.199V80.98ZM182.159 136H154.439V38H231.299V59.42H182.159V136ZM269.743 75.94H315.243V96.66H269.743V75.94ZM271.703 114.58H322.943V136H244.263V38H321.123V59.42H271.703V114.58ZM372.765 137.96C364.739 137.96 356.992 136.98 349.525 135.02C342.152 132.967 336.132 130.353 331.465 127.18L340.565 106.74C344.952 109.54 349.992 111.873 355.685 113.74C361.472 115.513 367.212 116.4 372.905 116.4C376.732 116.4 379.812 116.073 382.145 115.42C384.479 114.673 386.159 113.74 387.185 112.62C388.305 111.407 388.865 110.007 388.865 108.42C388.865 106.18 387.839 104.407 385.785 103.1C383.732 101.793 381.072 100.72 377.805 99.88C374.539 99.04 370.899 98.2 366.885 97.36C362.965 96.52 358.999 95.4467 354.985 94.14C351.065 92.8333 347.472 91.1533 344.205 89.1C340.939 86.9533 338.279 84.2 336.225 80.84C334.172 77.3867 333.145 73.0467 333.145 67.82C333.145 61.94 334.732 56.62 337.905 51.86C341.172 47.1 346.025 43.2733 352.465 40.38C358.905 37.4867 366.932 36.04 376.545 36.04C382.985 36.04 389.285 36.7867 395.445 38.28C401.699 39.68 407.252 41.78 412.105 44.58L403.565 65.16C398.899 62.64 394.279 60.7733 389.705 59.56C385.132 58.2533 380.699 57.6 376.405 57.6C372.579 57.6 369.499 58.02 367.165 58.86C364.832 59.6067 363.152 60.6333 362.125 61.94C361.099 63.2467 360.585 64.74 360.585 66.42C360.585 68.5667 361.565 70.2933 363.525 71.6C365.579 72.8133 368.239 73.84 371.505 74.68C374.865 75.4267 378.505 76.22 382.425 77.06C386.439 77.9 390.405 78.9733 394.325 80.28C398.339 81.4933 401.979 83.1733 405.245 85.32C408.512 87.3733 411.125 90.1267 413.085 93.58C415.139 96.94 416.165 101.187 416.165 106.32C416.165 112.013 414.532 117.287 411.265 122.14C408.092 126.9 403.285 130.727 396.845 133.62C390.499 136.513 382.472 137.96 372.765 137.96ZM448.463 136V59.98H418.363V38H506.143V59.98H476.183V136H448.463Z" fill="#3A77C3"/>
<path d="M33.5434 374.12C29.1168 374.12 25.0101 373.427 21.2234 372.04C17.4901 370.6 14.2368 368.573 11.4634 365.96C8.74344 363.347 6.6101 360.28 5.06344 356.76C3.51677 353.187 2.74344 349.267 2.74344 345C2.74344 340.733 3.51677 336.84 5.06344 333.32C6.6101 329.747 8.74344 326.653 11.4634 324.04C14.2368 321.427 17.4901 319.427 21.2234 318.04C25.0101 316.6 29.1168 315.88 33.5434 315.88C38.7168 315.88 43.3301 316.787 47.3834 318.6C51.4901 320.413 54.9034 323.027 57.6234 326.44L47.5434 335.56C45.7301 333.427 43.7301 331.8 41.5434 330.68C39.4101 329.56 37.0101 329 34.3434 329C32.0501 329 29.9434 329.373 28.0234 330.12C26.1034 330.867 24.4501 331.96 23.0634 333.4C21.7301 334.787 20.6634 336.467 19.8634 338.44C19.1168 340.413 18.7434 342.6 18.7434 345C18.7434 347.4 19.1168 349.587 19.8634 351.56C20.6634 353.533 21.7301 355.24 23.0634 356.68C24.4501 358.067 26.1034 359.133 28.0234 359.88C29.9434 360.627 32.0501 361 34.3434 361C37.0101 361 39.4101 360.44 41.5434 359.32C43.7301 358.2 45.7301 356.573 47.5434 354.44L57.6234 363.56C54.9034 366.92 51.4901 369.533 47.3834 371.4C43.3301 373.213 38.7168 374.12 33.5434 374.12ZM78.6116 373V349.32L82.2916 358.84L57.2516 317H73.9716L92.0516 347.32H82.3716L100.532 317H115.892L90.9316 358.84L94.4516 349.32V373H78.6116ZM119.686 373V317H148.326C155.686 317 161.179 318.36 164.806 321.08C168.433 323.747 170.246 327.267 170.246 331.64C170.246 334.52 169.473 337.053 167.926 339.24C166.433 341.373 164.299 343.08 161.526 344.36C158.806 345.587 155.553 346.2 151.766 346.2L153.366 342.36C157.313 342.36 160.753 342.973 163.686 344.2C166.619 345.373 168.886 347.107 170.486 349.4C172.139 351.64 172.966 354.387 172.966 357.64C172.966 362.493 170.993 366.28 167.046 369C163.153 371.667 157.446 373 149.926 373H119.686ZM135.366 361.56H148.646C151.366 361.56 153.419 361.107 154.806 360.2C156.246 359.24 156.966 357.8 156.966 355.88C156.966 353.96 156.246 352.547 154.806 351.64C153.419 350.68 151.366 350.2 148.646 350.2H134.246V339.24H146.246C148.913 339.24 150.913 338.787 152.246 337.88C153.579 336.973 154.246 335.613 154.246 333.8C154.246 331.987 153.579 330.653 152.246 329.8C150.913 328.893 148.913 328.44 146.246 328.44H135.366V361.56ZM195.73 338.68H221.73V350.52H195.73V338.68ZM196.85 360.76H226.13V373H181.17V317H225.09V329.24H196.85V360.76ZM234.92 373V317H260.52C265.64 317 270.04 317.827 273.72 319.48C277.454 321.133 280.334 323.533 282.36 326.68C284.387 329.773 285.4 333.453 285.4 337.72C285.4 341.933 284.387 345.587 282.36 348.68C280.334 351.72 277.454 354.067 273.72 355.72C270.04 357.32 265.64 358.12 260.52 358.12H243.72L250.76 351.48V373H234.92ZM269.56 373L255.64 352.6H272.52L286.52 373H269.56ZM250.76 353.16L243.72 345.88H259.56C262.867 345.88 265.32 345.16 266.92 343.72C268.574 342.28 269.4 340.28 269.4 337.72C269.4 335.107 268.574 333.08 266.92 331.64C265.32 330.2 262.867 329.48 259.56 329.48H243.72L250.76 322.2V353.16Z" fill="#3A77C3"/>
<path d="M292.067 356.04V344.36H315.427V356.04H292.067Z" fill="#E7E5DE"/>
<path d="M360.602 373L344.842 346.36L357.562 338.84L378.442 373H360.602ZM324.922 373V317H340.682V373H324.922ZM336.122 351.56V338.76H356.442V351.56H336.122ZM359.082 346.68L344.442 345.08L361.642 317H378.282L359.082 346.68ZM410.731 374.12C406.251 374.12 402.118 373.4 398.331 371.96C394.544 370.52 391.238 368.493 388.411 365.88C385.638 363.213 383.478 360.12 381.931 356.6C380.384 353.08 379.611 349.213 379.611 345C379.611 340.787 380.384 336.92 381.931 333.4C383.478 329.88 385.638 326.813 388.411 324.2C391.238 321.533 394.544 319.48 398.331 318.04C402.118 316.6 406.251 315.88 410.731 315.88C415.264 315.88 419.398 316.6 423.131 318.04C426.918 319.48 430.198 321.533 432.971 324.2C435.744 326.813 437.904 329.88 439.451 333.4C441.051 336.92 441.851 340.787 441.851 345C441.851 349.213 441.051 353.107 439.451 356.68C437.904 360.2 435.744 363.267 432.971 365.88C430.198 368.493 426.918 370.52 423.131 371.96C419.398 373.4 415.264 374.12 410.731 374.12ZM410.731 361C412.864 361 414.838 360.627 416.651 359.88C418.518 359.133 420.118 358.067 421.451 356.68C422.838 355.24 423.904 353.533 424.651 351.56C425.451 349.587 425.851 347.4 425.851 345C425.851 342.547 425.451 340.36 424.651 338.44C423.904 336.467 422.838 334.787 421.451 333.4C420.118 331.96 418.518 330.867 416.651 330.12C414.838 329.373 412.864 329 410.731 329C408.598 329 406.598 329.373 404.731 330.12C402.918 330.867 401.318 331.96 399.931 333.4C398.598 334.787 397.531 336.467 396.731 338.44C395.984 340.36 395.611 342.547 395.611 345C395.611 347.4 395.984 349.587 396.731 351.56C397.531 353.533 398.598 355.24 399.931 356.68C401.318 358.067 402.918 359.133 404.731 359.88C406.598 360.627 408.598 361 410.731 361ZM451.078 373.96C450.011 373.96 448.864 373.88 447.638 373.72C446.464 373.56 445.211 373.32 443.878 373L444.758 360.04C445.504 360.2 446.224 360.28 446.918 360.28C449.104 360.28 450.758 359.427 451.878 357.72C452.998 355.96 453.771 353.507 454.198 350.36C454.678 347.213 454.971 343.533 455.078 339.32L455.878 317H500.998V373H485.398V326.04L488.838 329.56H466.198L469.398 325.88L468.998 338.68C468.838 344.12 468.464 349.027 467.878 353.4C467.291 357.72 466.358 361.427 465.078 364.52C463.798 367.56 462.011 369.907 459.718 371.56C457.478 373.16 454.598 373.96 451.078 373.96Z" fill="#E57D1E"/>
<rect x="372" y="341" width="77" height="10" fill="#E57D1E"/>
<path d="M25.3864 288V265.06L73.8564 219.735C77.3098 216.528 79.8381 213.692 81.4414 211.225C83.1681 208.758 84.2781 206.538 84.7714 204.565C85.3881 202.468 85.6964 200.557 85.6964 198.83C85.6964 194.637 84.2781 191.368 81.4414 189.025C78.7281 186.682 74.5964 185.51 69.0464 185.51C64.3598 185.51 59.9814 186.558 55.9114 188.655C51.8414 190.752 48.5114 193.897 45.9214 198.09L18.7264 182.92C23.5364 174.78 30.5048 168.243 39.6314 163.31C48.7581 158.377 59.6731 155.91 72.3764 155.91C82.3664 155.91 91.1231 157.513 98.6464 160.72C106.17 163.927 112.028 168.49 116.221 174.41C120.538 180.33 122.696 187.298 122.696 195.315C122.696 199.508 122.141 203.702 121.031 207.895C119.921 211.965 117.763 216.343 114.556 221.03C111.473 225.593 106.848 230.712 100.681 236.385L62.2014 271.905L56.0964 258.955H126.211V288H25.3864ZM194.039 290.59C182.939 290.59 173.072 287.938 164.438 282.635C155.928 277.332 149.207 269.685 144.273 259.695C139.34 249.705 136.873 237.557 136.873 223.25C136.873 208.943 139.34 196.795 144.273 186.805C149.207 176.815 155.928 169.168 164.438 163.865C173.072 158.562 182.939 155.91 194.039 155.91C205.015 155.91 214.759 158.562 223.269 163.865C231.902 169.168 238.685 176.815 243.618 186.805C248.552 196.795 251.019 208.943 251.019 223.25C251.019 237.557 248.552 249.705 243.618 259.695C238.685 269.685 231.902 277.332 223.269 282.635C214.759 287.938 205.015 290.59 194.039 290.59ZM194.039 260.62C197.985 260.62 201.439 259.387 204.398 256.92C207.482 254.453 209.887 250.507 211.614 245.08C213.34 239.53 214.204 232.253 214.204 223.25C214.204 214.123 213.34 206.847 211.614 201.42C209.887 195.993 207.482 192.047 204.398 189.58C201.439 187.113 197.985 185.88 194.039 185.88C190.092 185.88 186.577 187.113 183.493 189.58C180.533 192.047 178.128 195.993 176.278 201.42C174.552 206.847 173.688 214.123 173.688 223.25C173.688 232.253 174.552 239.53 176.278 245.08C178.128 250.507 180.533 254.453 183.493 256.92C186.577 259.387 190.092 260.62 194.039 260.62ZM261.514 288V265.06L309.984 219.735C313.438 216.528 315.966 213.692 317.569 211.225C319.296 208.758 320.406 206.538 320.899 204.565C321.516 202.468 321.824 200.557 321.824 198.83C321.824 194.637 320.406 191.368 317.569 189.025C314.856 186.682 310.724 185.51 305.174 185.51C300.488 185.51 296.109 186.558 292.039 188.655C287.969 190.752 284.639 193.897 282.049 198.09L254.854 182.92C259.664 174.78 266.633 168.243 275.759 163.31C284.886 158.377 295.801 155.91 308.504 155.91C318.494 155.91 327.251 157.513 334.774 160.72C342.298 163.927 348.156 168.49 352.349 174.41C356.666 180.33 358.824 187.298 358.824 195.315C358.824 199.508 358.269 203.702 357.159 207.895C356.049 211.965 353.891 216.343 350.684 221.03C347.601 225.593 342.976 230.712 336.809 236.385L298.329 271.905L292.224 258.955H362.339V288H261.514ZM370.622 263.21V239.345L428.712 158.5H466.637L410.212 239.345L392.822 234.165H494.017V263.21H370.622ZM439.072 288V263.21L440.182 234.165V212.15H474.777V288H439.072Z" fill="#E7E5DE"/>
</svg>
