<svg width="375" height="232" viewBox="0 0 375 232" fill="none" xmlns="http://www.w3.org/2000/svg">
<path d="M7.35 102V28.5H28.14V102H7.35ZM58.5761 102V44.985H36.0011V28.5H101.836V44.985H79.3661V102H58.5761Z" fill="#E7E5DE"/>
<path d="M128.901 60.735H162.816V76.8H128.901V60.735ZM130.371 102H109.581V28.5H167.226V44.565H130.371V102ZM196.06 56.955H230.185V72.495H196.06V56.955ZM197.53 85.935H235.96V102H176.95V28.5H234.595V44.565H197.53V85.935ZM273.326 103.47C267.306 103.47 261.496 102.735 255.896 101.265C250.366 99.725 245.851 97.765 242.351 95.385L249.176 80.055C252.466 82.155 256.246 83.905 260.516 85.305C264.856 86.635 269.161 87.3 273.431 87.3C276.301 87.3 278.611 87.055 280.361 86.565C282.111 86.005 283.371 85.305 284.141 84.465C284.981 83.555 285.401 82.505 285.401 81.315C285.401 79.635 284.631 78.305 283.091 77.325C281.551 76.345 279.556 75.54 277.106 74.91C274.656 74.28 271.926 73.65 268.916 73.02C265.976 72.39 263.001 71.585 259.991 70.605C257.051 69.625 254.356 68.365 251.906 66.825C249.456 65.215 247.461 63.15 245.921 60.63C244.381 58.04 243.611 54.785 243.611 50.865C243.611 46.455 244.801 42.465 247.181 38.895C249.631 35.325 253.271 32.455 258.101 30.285C262.931 28.115 268.951 27.03 276.161 27.03C280.991 27.03 285.716 27.59 290.336 28.71C295.026 29.76 299.191 31.335 302.831 33.435L296.426 48.87C292.926 46.98 289.461 45.58 286.031 44.67C282.601 43.69 279.276 43.2 276.056 43.2C273.186 43.2 270.876 43.515 269.126 44.145C267.376 44.705 266.116 45.475 265.346 46.455C264.576 47.435 264.191 48.555 264.191 49.815C264.191 51.425 264.926 52.72 266.396 53.7C267.936 54.61 269.931 55.38 272.381 56.01C274.901 56.57 277.631 57.165 280.571 57.795C283.581 58.425 286.556 59.23 289.496 60.21C292.506 61.12 295.236 62.38 297.686 63.99C300.136 65.53 302.096 67.595 303.566 70.185C305.106 72.705 305.876 75.89 305.876 79.74C305.876 84.01 304.651 87.965 302.201 91.605C299.821 95.175 296.216 98.045 291.386 100.215C286.626 102.385 280.606 103.47 273.326 103.47ZM330.099 102V44.985H307.524V28.5H373.359V44.985H350.889V102H330.099Z" fill="#3A77C3"/>
<path d="M12.2 219V201.64L48.88 167.34C51.4933 164.913 53.4067 162.767 54.62 160.9C55.9267 159.033 56.7667 157.353 57.14 155.86C57.6067 154.273 57.84 152.827 57.84 151.52C57.84 148.347 56.7667 145.873 54.62 144.1C52.5667 142.327 49.44 141.44 45.24 141.44C41.6933 141.44 38.38 142.233 35.3 143.82C32.22 145.407 29.7 147.787 27.74 150.96L7.16 139.48C10.8 133.32 16.0733 128.373 22.98 124.64C29.8867 120.907 38.1467 119.04 47.76 119.04C55.32 119.04 61.9467 120.253 67.64 122.68C73.3333 125.107 77.7667 128.56 80.94 133.04C84.2067 137.52 85.84 142.793 85.84 148.86C85.84 152.033 85.42 155.207 84.58 158.38C83.74 161.46 82.1067 164.773 79.68 168.32C77.3467 171.773 73.8467 175.647 69.18 179.94L40.06 206.82L35.44 197.02H88.5V219H12.2ZM139.829 220.96C131.429 220.96 123.962 218.953 117.429 214.94C110.989 210.927 105.902 205.14 102.169 197.58C98.4353 190.02 96.5686 180.827 96.5686 170C96.5686 159.173 98.4353 149.98 102.169 142.42C105.902 134.86 110.989 129.073 117.429 125.06C123.962 121.047 131.429 119.04 139.829 119.04C148.135 119.04 155.509 121.047 161.949 125.06C168.482 129.073 173.615 134.86 177.349 142.42C181.082 149.98 182.949 159.173 182.949 170C182.949 180.827 181.082 190.02 177.349 197.58C173.615 205.14 168.482 210.927 161.949 214.94C155.509 218.953 148.135 220.96 139.829 220.96ZM139.829 198.28C142.815 198.28 145.429 197.347 147.669 195.48C150.002 193.613 151.822 190.627 153.129 186.52C154.435 182.32 155.089 176.813 155.089 170C155.089 163.093 154.435 157.587 153.129 153.48C151.822 149.373 150.002 146.387 147.669 144.52C145.429 142.653 142.815 141.72 139.829 141.72C136.842 141.72 134.182 142.653 131.849 144.52C129.609 146.387 127.789 149.373 126.389 153.48C125.082 157.587 124.429 163.093 124.429 170C124.429 176.813 125.082 182.32 126.389 186.52C127.789 190.627 129.609 193.613 131.849 195.48C134.182 197.347 136.842 198.28 139.829 198.28ZM190.891 219V201.64L227.571 167.34C230.185 164.913 232.098 162.767 233.311 160.9C234.618 159.033 235.458 157.353 235.831 155.86C236.298 154.273 236.531 152.827 236.531 151.52C236.531 148.347 235.458 145.873 233.311 144.1C231.258 142.327 228.131 141.44 223.931 141.44C220.385 141.44 217.071 142.233 213.991 143.82C210.911 145.407 208.391 147.787 206.431 150.96L185.851 139.48C189.491 133.32 194.765 128.373 201.671 124.64C208.578 120.907 216.838 119.04 226.451 119.04C234.011 119.04 240.638 120.253 246.331 122.68C252.025 125.107 256.458 128.56 259.631 133.04C262.898 137.52 264.531 142.793 264.531 148.86C264.531 152.033 264.111 155.207 263.271 158.38C262.431 161.46 260.798 164.773 258.371 168.32C256.038 171.773 252.538 175.647 247.871 179.94L218.751 206.82L214.131 197.02H267.191V219H190.891ZM273.46 200.24V182.18L317.42 121H346.12L303.42 182.18L290.26 178.26H366.84V200.24H273.46ZM325.26 219V200.24L326.1 178.26V161.6H352.28V219H325.26Z" fill="#E7E5DE"/>
</svg>
