<svg width="30" height="30" viewBox="0 0 30 30" fill="none" xmlns="http://www.w3.org/2000/svg">
<circle cx="15" cy="15" r="15" fill="#E7E5DE"/>
<path d="M16 5C16 4.44772 15.5523 4 15 4C14.4477 4 14 4.44772 14 5L16 5ZM14.2929 25.7071C14.6834 26.0976 15.3166 26.0976 15.7071 25.7071L22.0711 19.3431C22.4616 18.9526 22.4616 18.3195 22.0711 17.9289C21.6805 17.5384 21.0474 17.5384 20.6569 17.9289L15 23.5858L9.34315 17.9289C8.95262 17.5384 8.31946 17.5384 7.92893 17.9289C7.53841 18.3195 7.53841 18.9526 7.92893 19.3431L14.2929 25.7071ZM14 5L14 25L16 25L16 5L14 5Z" fill="#10183D"/>
</svg>
