<svg width="30" height="30" viewBox="0 0 30 30" fill="none" xmlns="http://www.w3.org/2000/svg">
<circle cx="15" cy="15" r="15" transform="matrix(1 0 0 -1 0 30)" fill="#F2F1EA"/>
<path d="M16 25C16 25.5523 15.5523 26 15 26C14.4477 26 14 25.5523 14 25L16 25ZM14.2929 4.29289C14.6834 3.90237 15.3166 3.90237 15.7071 4.29289L22.0711 10.6569C22.4616 11.0474 22.4616 11.6805 22.0711 12.0711C21.6805 12.4616 21.0474 12.4616 20.6569 12.0711L15 6.41421L9.34315 12.0711C8.95262 12.4616 8.31946 12.4616 7.92893 12.0711C7.53841 11.6805 7.53841 11.0474 7.92893 10.6569L14.2929 4.29289ZM14 25L14 5L16 5L16 25L14 25Z" fill="#10183D"/>
</svg>
