<svg width="30" height="30" viewBox="0 0 30 30" fill="none" xmlns="http://www.w3.org/2000/svg">
<circle cx="15" cy="15" r="15" transform="matrix(-1 0 0 1 30 0)" fill="#F2F1EA"/>
<path d="M14 5C14 4.44772 14.4477 4 15 4C15.5523 4 16 4.44772 16 5L14 5ZM15.7071 25.7071C15.3166 26.0976 14.6834 26.0976 14.2929 25.7071L7.92893 19.3431C7.53841 18.9526 7.53841 18.3195 7.92893 17.9289C8.31946 17.5384 8.95262 17.5384 9.34315 17.9289L15 23.5858L20.6569 17.9289C21.0474 17.5384 21.6805 17.5384 22.0711 17.9289C22.4616 18.3195 22.4616 18.9526 22.0711 19.3431L15.7071 25.7071ZM16 5L16 25L14 25L14 5L16 5Z" fill="#10183D"/>
</svg>
